<svg width="49" height="63" viewBox="0 0 49 63" fill="none" xmlns="http://www.w3.org/2000/svg">
<path fill-rule="evenodd" clip-rule="evenodd" d="M22.2026 0.142097C22.0401 0.220881 20.9591 1.71076 19.6856 3.61129C8.11486 20.8801 3.12419 28.4101 2.62939 29.3465C-0.765955 35.7712 -0.879304 43.5469 2.32611 50.1503C5.24485 56.1635 10.6603 60.5988 17.1393 62.2824C28.0517 65.118 39.4948 59.3299 43.7899 48.8019C45.07 45.6642 45.5787 42.7652 45.4751 39.1987L45.411 36.987L46.1229 36.2201C49.0814 33.0327 49.8397 28.2528 48.0176 24.278C47.5413 23.2393 39.2762 10.8066 38.823 10.4474C38.4722 10.1692 38.0921 10.1395 37.6257 10.3536C37.4104 10.4524 36.7253 11.3678 35.5924 13.0701C34.6527 14.4822 33.8685 15.6199 33.8495 15.5985C33.8306 15.5769 31.5792 12.208 28.8465 8.11181C26.1138 4.01567 23.7154 0.512011 23.5168 0.325762C23.1322 -0.0347971 22.6939 -0.0961007 22.2026 0.142097ZM27.6052 10.6776C30.1985 14.5599 32.3203 17.7919 32.3203 17.8597C32.3203 17.9275 31.5311 19.1548 30.5665 20.5872C28.2326 24.0532 27.7625 25.0326 27.4271 27.1284C27.2276 28.3744 27.3454 30.5516 27.6759 31.7268C29.0119 36.4779 33.2645 39.7484 38.1062 39.7484C39.7473 39.7484 41.1469 39.4413 42.8552 38.7061C43.0513 38.6217 43.0689 38.7261 43.0689 39.9752C43.0689 49.7799 36.2696 58.1838 26.768 60.1228C23.3414 60.822 19.6492 60.6 16.3507 59.4964C15.8297 59.3221 14.6339 58.7971 13.6934 58.3296C4.56231 53.7913 0.223774 43.0565 3.57637 33.297C4.27161 31.2733 5.233 29.6032 8.51121 24.7237C10.2194 22.1812 14.1178 16.3558 17.1745 11.7783C20.2311 7.20088 22.7676 3.49238 22.811 3.53718C22.8547 3.58199 25.0119 6.79514 27.6052 10.6776ZM41.819 19.1292C43.7638 22.0405 45.4795 24.6691 45.6317 24.9706C47.7201 29.1074 46.1302 34.1609 42.0658 36.3048C39.6075 37.6014 36.8202 37.6129 34.2746 36.3365C32.9913 35.6931 31.3362 34.025 30.6979 32.7317C29.5144 30.3344 29.4473 27.5728 30.5176 25.3183C30.9956 24.3114 38.0877 13.6408 38.2026 13.7557C38.2468 13.7998 39.8741 16.2179 41.819 19.1292ZM32.4211 25.2883C31.7467 25.6572 31.2232 27.9425 31.4644 29.4641C31.7195 31.0733 32.3323 32.2361 33.534 33.3913C34.3376 34.1639 34.7634 34.3786 35.2697 34.2665C35.7608 34.1577 36.2289 33.5475 36.2289 33.0159C36.2289 32.6383 36.1166 32.4711 35.3884 31.7634C34.9261 31.3142 34.4336 30.7181 34.2941 30.4385C33.8062 29.4609 33.7412 27.9544 34.1419 26.9073C34.6154 25.6704 33.5515 24.6696 32.4211 25.2883ZM8.66487 30.0826C8.30687 30.3355 7.21661 32.0787 6.6677 33.2761C2.60533 42.1379 6.76163 52.5742 15.785 56.169C16.3979 56.4133 17.0465 56.6131 17.2263 56.6131C18.3305 56.6131 18.9094 55.2656 18.1107 54.5545C17.9652 54.4248 17.434 54.162 16.9302 53.9704C14.4669 53.0331 12.4497 51.5885 10.7998 49.58C6.80023 44.7112 6.47911 37.6572 10.0133 32.3067C10.7041 31.2611 10.7516 30.7943 10.2217 30.2603C9.81436 29.8499 9.10886 29.7693 8.66487 30.0826ZM37.4951 33.1961C36.7672 33.7904 36.8039 34.7781 37.5712 35.235C37.7606 35.3477 38.036 35.4399 38.1832 35.4399C38.7851 35.4399 39.4046 34.8156 39.4046 34.2089C39.4046 33.263 38.1975 32.6228 37.4951 33.1961ZM20.5945 55.2723C19.8024 55.5854 19.6048 56.6193 20.2187 57.238C20.8768 57.9012 21.9289 57.6375 22.195 56.7426C22.3743 56.1391 22.0953 55.5588 21.5064 55.3108C21.0304 55.1104 21.0064 55.1094 20.5945 55.2723Z" fill="#B66A20"/>
</svg>
