<svg width="37" height="37" viewBox="0 0 37 37" fill="none" xmlns="http://www.w3.org/2000/svg">
<path opacity="0.4" d="M18.1762 21.9068L13.1349 26.948C12.5799 26.4547 12.0403 25.9459 11.5162 25.4218C9.92825 23.8184 8.4945 22.138 7.21492 20.3805C5.95075 18.623 4.93325 16.8655 4.19325 15.1234C3.45325 13.3659 3.08325 11.6855 3.08325 10.0822C3.08325 9.03384 3.26825 8.03176 3.63825 7.10676C4.00825 6.16634 4.59409 5.30301 5.41117 4.53217C6.39784 3.56092 7.477 3.08301 8.61784 3.08301C9.0495 3.08301 9.48117 3.17551 9.86658 3.36051C10.2674 3.54551 10.622 3.82301 10.8995 4.22384L14.4762 9.26509C14.7537 9.65051 14.9541 10.0051 15.0928 10.3443C15.2316 10.668 15.3087 10.9918 15.3087 11.2847C15.3087 11.6547 15.2008 12.0247 14.9849 12.3793C14.7845 12.7338 14.4916 13.1038 14.1216 13.4738L12.9499 14.6918C12.7803 14.8613 12.7033 15.0618 12.7033 15.3084C12.7033 15.4318 12.7187 15.5397 12.7495 15.663C12.7958 15.7863 12.842 15.8788 12.8728 15.9713C13.1503 16.4801 13.6283 17.143 14.3066 17.9447C15.0003 18.7463 15.7403 19.5634 16.542 20.3805C17.097 20.9201 17.6366 21.4443 18.1762 21.9068Z" fill="#FDFDFD"/>
<path d="M33.8705 28.2583C33.8705 28.6899 33.7934 29.137 33.6392 29.5687C33.593 29.692 33.5467 29.8154 33.485 29.9387C33.223 30.4937 32.8838 31.0179 32.4367 31.5112C31.6813 32.3437 30.8488 32.9449 29.9084 33.3304C29.893 33.3304 29.8775 33.3458 29.8621 33.3458C28.9525 33.7158 27.9659 33.9162 26.9021 33.9162C25.3296 33.9162 23.6492 33.5462 21.8763 32.7908C20.1034 32.0354 18.3305 31.0179 16.573 29.7383C15.9717 29.2912 15.3705 28.8441 14.8 28.3662L19.8413 23.3249C20.273 23.6487 20.6584 23.8954 20.9821 24.0649C21.0592 24.0958 21.1517 24.142 21.2596 24.1883C21.383 24.2345 21.5063 24.2499 21.645 24.2499C21.9071 24.2499 22.1075 24.1574 22.2771 23.9879L23.4488 22.8316C23.8342 22.4462 24.2042 22.1533 24.5588 21.9683C24.9134 21.7524 25.268 21.6445 25.6534 21.6445C25.9463 21.6445 26.2546 21.7062 26.5938 21.8449C26.933 21.9837 27.2875 22.1841 27.673 22.4462L32.7759 26.0691C33.1767 26.3466 33.4542 26.6704 33.6238 27.0558C33.778 27.4412 33.8705 27.8266 33.8705 28.2583Z" fill="#FDFDFD"/>
</svg>
