<svg width="37" height="37" viewBox="0 0 37 37" fill="none" xmlns="http://www.w3.org/2000/svg">
<path opacity="0.4" d="M18.4999 33.9163C27.0143 33.9163 33.9166 27.0141 33.9166 18.4997C33.9166 9.98528 27.0143 3.08301 18.4999 3.08301C9.98553 3.08301 3.08325 9.98528 3.08325 18.4997C3.08325 27.0141 9.98553 33.9163 18.4999 33.9163Z" fill="#FDFDFD"/>
<path d="M24.2197 24.559C24.0192 24.559 23.8188 24.5127 23.6338 24.3894L18.8547 21.5373C17.6676 20.8281 16.7888 19.271 16.7888 17.899V11.5781C16.7888 10.946 17.313 10.4219 17.9451 10.4219C18.5772 10.4219 19.1013 10.946 19.1013 11.5781V17.899C19.1013 18.454 19.5638 19.271 20.0417 19.5485L24.8209 22.4006C25.3759 22.7244 25.5455 23.4335 25.2217 23.9885C24.9905 24.3585 24.6051 24.559 24.2197 24.559Z" fill="#FDFDFD"/>
</svg>
