<svg width="49" height="48" viewBox="0 0 49 48" fill="none" xmlns="http://www.w3.org/2000/svg">
<rect x="1" y="0.5" width="47" height="47" rx="23.5" stroke="#DDCD9D"/>
<path fill-rule="evenodd" clip-rule="evenodd" d="M27.0352 13H15.4336C14.3674 13 13.5 13.8674 13.5 14.9336V18.8008C13.5 19.867 14.3673 20.7344 15.4336 20.7344H16.0781V22.6679C16.0781 23.2427 16.7753 23.5268 17.1783 23.1236L18.6562 21.6457V20.0898C18.6562 18.3129 20.102 16.8672 21.8789 16.8672H28.9688V14.9336C28.9688 13.8674 28.1014 13 27.0352 13ZM24.457 15.5781H18.0117C17.6555 15.5781 17.3672 15.2898 17.3672 14.9336C17.3672 14.5773 17.6555 14.2891 18.0117 14.2891H24.457C24.8133 14.2891 25.1016 14.5773 25.1016 14.9336C25.1016 15.2898 24.8133 15.5781 24.457 15.5781ZM21.9648 18.1992H33.5664C34.6326 18.1992 35.5 19.0666 35.5 20.1328V24C35.5 25.0662 34.6326 25.9336 33.5664 25.9336H32.9219V27.8672C32.9219 28.4434 32.2258 28.727 31.8217 28.3229L30.3438 26.845V26.5781C30.3438 24.8012 28.898 23.3554 27.1211 23.3554H20.0312V20.1328C20.0312 19.0666 20.8986 18.1992 21.9648 18.1992ZM24.543 22.0664H30.9883C31.3445 22.0664 31.6328 21.7781 31.6328 21.4219C31.6328 21.0656 31.3445 20.7773 30.9883 20.7773H24.543C24.1867 20.7773 23.8984 21.0656 23.8984 21.4219C23.8984 21.7781 24.1867 22.0664 24.543 22.0664ZM15.4336 24.6875H27.0352C28.1014 24.6875 28.9688 25.5548 28.9688 26.6211V30.4882C28.9688 31.5545 28.1014 32.4218 27.0352 32.4218H19.5677L17.1783 34.8111C16.7753 35.2142 16.0781 34.9302 16.0781 34.3554V32.4218H15.4336C14.3674 32.4218 13.5 31.5545 13.5 30.4882V26.6211C13.5 25.5548 14.3674 24.6875 15.4336 24.6875ZM18.0117 28.5546H24.457C24.8133 28.5546 25.1016 28.2664 25.1016 27.9101C25.1016 27.5539 24.8133 27.2656 24.457 27.2656H18.0117C17.6555 27.2656 17.3672 27.5539 17.3672 27.9101C17.3672 28.2664 17.6555 28.5546 18.0117 28.5546Z" fill="#B66A20"/>
</svg>
