<svg width="48" height="48" viewBox="0 0 48 48" fill="none" xmlns="http://www.w3.org/2000/svg">
<rect x="0.5" y="0.5" width="47" height="47" rx="23.5" stroke="#DDCD9D"/>
<path fill-rule="evenodd" clip-rule="evenodd" d="M28 17.1905C28 19.5048 26.2091 21.381 24 21.381C21.7909 21.381 20 19.5048 20 17.1905C20 14.8761 21.7909 13 24 13C26.2091 13 28 14.8761 28 17.1905ZM17 22.4286C18.6569 22.4286 20 21.0215 20 19.2857C20 17.55 18.6569 16.1429 17 16.1429C15.3431 16.1429 14 17.55 14 19.2857C14 21.0215 15.3431 22.4286 17 22.4286ZM31 22.4286C32.6569 22.4286 34 21.0215 34 19.2857C34 17.55 32.6569 16.1429 31 16.1429C29.3431 16.1429 28 17.55 28 19.2857C28 21.0215 29.3431 22.4286 31 22.4286ZM30.4629 23.4761H34.0004C35.105 23.4761 36.0004 24.4141 36.0004 25.5713V31.857C36.0004 32.4356 35.5527 32.9046 35.0004 32.9046H31.0004V25.5713C31.0011 24.8354 30.8156 24.1125 30.4629 23.4761ZM17.5381 23.4762H14C12.8954 23.4762 12 24.4143 12 25.5714V31.8571C12 32.4357 12.4477 32.9048 13 32.9048H17V25.5714C16.9995 24.8355 17.1852 24.1125 17.5381 23.4762ZM26 21.381H27C28.6569 21.381 30 22.7881 30 24.5238V33.9524C30 34.531 29.5523 35 29 35H19C18.4477 35 18 34.531 18 33.9524V24.5238C18 22.7881 19.3431 21.381 21 21.381H22L24 27.6667L26 21.381Z" fill="#B66A20"/>
</svg>
