<svg width="37" height="38" viewBox="0 0 37 38" fill="none" xmlns="http://www.w3.org/2000/svg">
<path opacity="0.4" d="M31.7892 13.5274C30.1704 6.40491 23.9575 3.19824 18.5 3.19824C18.5 3.19824 18.5 3.19824 18.4846 3.19824C13.0425 3.19824 6.81419 6.38949 5.19544 13.512C3.39169 21.467 8.26336 28.2041 12.6725 32.4437C14.3067 34.0162 16.4034 34.8024 18.5 34.8024C20.5967 34.8024 22.6934 34.0162 24.3121 32.4437C28.7213 28.2041 33.5929 21.4824 31.7892 13.5274Z" fill="#FDFDFD"/>
<path d="M18.5 21.2506C21.1821 21.2506 23.3563 19.0764 23.3563 16.3943C23.3563 13.7123 21.1821 11.5381 18.5 11.5381C15.818 11.5381 13.6438 13.7123 13.6438 16.3943C13.6438 19.0764 15.818 21.2506 18.5 21.2506Z" fill="#FDFDFD"/>
</svg>
