<svg width="191" height="28" viewBox="0 0 191 28" fill="none" xmlns="http://www.w3.org/2000/svg">
<path fill-rule="evenodd" clip-rule="evenodd" d="M0.866699 9.03183V18.0636L8.40382 18.0267L15.941 17.9898L16.538 17.6627C16.8663 17.4828 17.3185 17.0805 17.543 16.7688L17.9508 16.2018L17.9939 13.3185C18.024 11.3009 17.989 10.3224 17.8776 10.0597C17.7069 9.65709 16.957 9.10378 16.5439 9.09306C17.6027 8.59209 18.0302 8.20495 17.9878 4.90634C17.9541 2.28192 17.9262 1.98178 17.6709 1.50463C17.3402 0.886431 16.5327 0.291917 15.797 0.125364C15.5078 0.0598157 12.0301 0.00486503 8.06884 0.00316417L0.866699 2.41369e-05V9.03183ZM27.3636 0.183586C26.6044 0.452844 25.9827 0.975268 25.6691 1.60786C25.3924 2.16613 25.3875 2.3145 25.3875 10.1157V18.0553H26.8614H28.3353V14.9152V11.7752H33.9631H39.5908V14.9152V18.0553H41.0647H42.5386V10.2246C42.5386 4.65618 42.494 2.26569 42.3841 1.94933C42.1429 1.25486 41.7706 0.816696 41.0895 0.425761L40.4617 0.0654416L34.164 0.0353496C29.1232 0.0112759 27.766 0.0408446 27.3636 0.183586ZM47.5902 0.163568C47.6597 0.253582 49.265 2.39614 51.1573 4.92491L54.598 9.52272V13.789V18.0553H56.005H57.4119V13.8159V9.57662L60.9627 4.85806C62.9157 2.26281 64.5135 0.108094 64.5135 0.0697592C64.5135 0.0314245 63.7147 0.000285805 62.7381 0.000547475L60.9627 0.00120165L58.5729 3.20522C57.2586 4.96744 56.134 6.43894 56.0738 6.47518C56.0137 6.51155 54.8683 5.06949 53.5286 3.27064L51.0928 2.41369e-05H49.2782C47.8484 2.41369e-05 47.4904 0.0346954 47.5902 0.163568ZM68.2654 1.37379V2.74756H71.2132H74.1611V10.4014V18.0553H75.635H77.1089V10.4014V2.74756H80.0568H83.0046V1.37379V2.41369e-05H75.635H68.2654V1.37379ZM89.1683 9.02764V18.0553H90.6422H92.1162V9.02764V2.41369e-05H90.6422H89.1683V9.02764ZM99.4858 9.02764V18.0553H100.96H102.434V14.1956V10.336L104.946 10.3379L107.458 10.34L110.205 14.1933L112.952 18.0465L114.789 18.0509L116.625 18.0553L113.474 13.5919C111.619 10.9652 110.353 9.05145 110.396 8.94129C110.436 8.83845 111.802 6.8635 113.432 4.55269C115.061 2.24175 116.425 0.272161 116.463 0.175605C116.518 0.0340412 116.186 0.00107081 114.742 0.00538837L112.952 0.0106218L110.219 3.86502L107.487 7.71929H104.96H102.434V3.85966V2.41369e-05H100.96H99.4858V9.02764ZM185.225 1.85827C184.46 2.88036 183.703 3.98659 183.613 4.10669L185.353 6.55773L186.076 5.6012C187.29 3.99585 190.226 0.173618 190.333 0C190.333 0 189.82 2.41369e-05 188.415 2.41369e-05H186.615L185.225 1.85827ZM133.922 9.09306V18.0553H138.746H143.57V16.7469V15.4386H140.153H136.736V7.78471V0.130859H135.329H133.922V9.09306ZM149.867 8.05161C149.867 15.58 149.88 15.9963 150.122 16.4578C150.419 17.023 150.819 17.404 151.475 17.7456C151.914 17.9743 152.354 17.9898 158.376 17.9898C164.704 17.9898 164.816 17.9853 165.344 17.7081C166.016 17.3546 166.412 16.9442 166.677 16.324C166.856 15.905 166.884 14.7785 166.884 7.98515V0.130859H165.478H164.071V7.6277C164.071 13.2841 164.031 15.1631 163.91 15.2815C163.679 15.5071 153.073 15.5071 152.842 15.2815C152.721 15.1631 152.681 13.2841 152.681 7.6277V0.130859H151.274H149.867V8.05161ZM173.339 0.23592C173.363 0.293749 174.83 2.26857 176.599 4.62439C178.368 6.98033 179.83 8.95097 179.849 9.0037C179.868 9.05642 178.38 11.0998 176.541 13.5447L173.198 17.9898L174.824 18.0267C175.718 18.0471 176.518 18.0384 176.601 18.0072C176.684 17.9762 177.833 16.5037 179.154 14.7348C180.476 12.9659 181.617 11.5361 181.691 11.5576C181.764 11.5791 182.91 13.0485 184.237 14.8231L186.648 18.0496L188.423 18.0525L190.197 18.0553L188.015 15.1442C186.815 13.5431 183.793 9.51016 181.299 6.18198L176.766 0.130859H175.03C174.075 0.130859 173.314 0.17809 173.339 0.23592ZM15.003 2.74468V7.72217H3.81455V5.23342V2.74468H15.003ZM39.5597 5.92031L39.5956 9.02764H33.9655H28.3353V5.97487C28.3353 4.29573 28.3762 2.88206 28.4262 2.83339C28.476 2.78458 30.9935 2.76012 34.0204 2.77883L39.5238 2.81298L39.5597 5.92031ZM15.003 10.336V15.2764H9.40877L3.81455 15.3106V12.8233V10.336H9.29193C13.7883 10.336 15.003 10.336 15.003 10.336ZM160.453 22.6672L160.453 23.4849L159.174 23.4394C157.716 23.3874 157.338 23.4517 156.966 23.8153C156.731 24.044 156.701 24.2549 156.701 25.6496C156.701 27.1513 156.717 27.2408 157.032 27.5489C157.355 27.8643 157.41 27.8719 159.31 27.8602L161.257 27.8481V24.8487V21.8495H160.855H160.453L160.453 22.6672ZM153.217 22.3728C153.217 22.7217 153.262 22.7653 153.619 22.7653C153.976 22.7653 154.021 22.7217 154.021 22.3728C154.021 22.0239 153.976 21.9803 153.619 21.9803C153.262 21.9803 153.217 22.0239 153.217 22.3728ZM133.922 25.6531V27.8679H134.324H134.726C134.726 27.8679 134.73 28.6529 134.728 26.396C134.726 24.1391 134.711 24.3353 135.747 24.3353H136.602V23.8792V23.423L135.262 23.4307L133.922 23.4383V25.6531ZM139.055 23.7352C138.702 24.0313 138.676 24.1252 138.632 25.2466C138.574 26.7104 138.672 27.2668 139.045 27.6067C139.305 27.8433 139.519 27.8679 141.317 27.8679H143.302V27.479V27.0902L141.459 27.0538L139.617 27.0174L139.576 26.6066L139.535 26.1957L141.096 26.1474C142.9 26.1474 142.727 26.0362 142.9 25.8399C143.151 25.5542 143.06 23.7595 142.9 23.5503C142.699 23.2886 142.096 23.4307 140.975 23.4195C139.536 23.4195 139.405 23.4409 139.055 23.7352ZM146.31 23.7407C146.029 24.0156 145.981 24.1838 145.981 24.9107C145.981 26.0856 146.118 26.167 148.088 26.167H149.599V26.6249V27.0829H147.79H145.981V27.4754V27.8679H147.93C149.821 27.8679 149.889 27.8583 150.208 27.5467C150.483 27.2785 150.537 27.0987 150.537 26.4549C150.537 25.3362 150.423 25.2684 148.455 25.2229L146.852 25.1858V24.7933V24.4007L148.695 24.3644L150.537 24.328V23.8737V23.4195H148.588C146.698 23.4195 146.629 23.429 146.31 23.7407ZM153.217 25.6437V27.8679H153.619H154.021V25.6437V23.4195H153.619H153.217V25.6437ZM164.521 23.5726C164.06 23.7905 163.937 24.2584 163.937 25.7867C163.937 27.1399 163.956 27.2447 164.266 27.5467C164.585 27.8583 164.653 27.8679 166.543 27.8679H168.492V27.4754V27.0829H166.683H164.875V26.6365V26.1902L166.338 26.1458C167.67 26.1055 167.833 26.0731 168.147 25.7845C168.435 25.5199 168.492 25.3505 168.492 24.7645C168.492 24.1929 168.431 24.0018 168.163 23.7407C167.852 23.4364 167.755 23.42 166.321 23.4284C165.489 23.4332 164.679 23.4981 164.521 23.5726ZM171.172 25.653V27.8679H171.641H172.11V26.1016V24.3353H173.517H174.924V26.1016V27.8679H175.395H175.866L175.823 25.9532C175.78 24.047 175.779 24.0372 175.41 23.7276C175.056 23.4302 174.956 23.4173 173.106 23.4273L171.172 23.4379V25.653ZM178.788 23.8129L178.386 24.2062L178.43 25.7872C178.49 27.9192 178.424 27.8679 181.103 27.8679H183.098V27.479V27.0902L181.255 27.0538L179.413 27.0174L179.375 25.6764L179.336 24.3353H181.217H183.098V23.8774V23.4195H181.144H179.191L178.788 23.8129ZM186.024 23.8129L185.621 24.2062L185.666 25.7872C185.726 27.9192 185.66 27.8679 188.338 27.8679H190.333V27.479V27.0902L188.491 27.0538L186.648 27.0174L186.607 26.5922L186.564 26.167H187.85C189.383 26.167 189.945 25.9823 190.193 25.3959C190.436 24.8248 190.288 24.0758 189.861 23.7139C189.545 23.4453 189.379 23.4195 187.971 23.4195C186.433 23.4195 186.425 23.4211 186.024 23.8129ZM142.364 24.7933V25.2512H140.957H139.55V24.7933V24.3353H140.957H142.364V24.7933ZM160.386 25.7091V27.0174L159.012 27.0547L157.639 27.092V25.7091V24.3262L159.012 24.3635L160.386 24.4007V25.7091ZM167.663 24.7605L167.621 25.1858L166.248 25.223L164.875 25.2603V24.7978V24.3353H166.29H167.705L167.663 24.7605ZM189.37 24.7605L189.328 25.1858L187.955 25.223L186.581 25.2603V24.7978V24.3353H187.997H189.412L189.37 24.7605Z" fill="black"/>
<path fill-rule="evenodd" clip-rule="evenodd" d="M133.922 9.09305V18.0552H138.746H143.57V16.7469V15.4385H140.153H136.736V7.7847V0.130851H135.329H133.922V9.09305ZM149.867 8.0516C149.867 15.58 149.88 15.9963 150.122 16.4577C150.419 17.023 150.819 17.4039 151.475 17.7456C151.914 17.9743 152.354 17.9898 158.376 17.9898C164.704 17.9898 164.816 17.9852 165.344 17.7081C166.016 17.3546 166.412 16.9442 166.677 16.324C166.856 15.905 166.884 14.7785 166.884 7.98514V0.130851H165.478H164.071V7.6277C164.071 13.2841 164.031 15.1631 163.91 15.2815C163.679 15.5071 153.073 15.5071 152.842 15.2815C152.721 15.1631 152.681 13.2841 152.681 7.6277V0.130851H151.274H149.867V8.0516ZM173.067 0C173.067 0 174.83 2.26856 176.599 4.62438C178.368 6.98032 179.83 8.95096 179.849 9.00369C179.868 9.05641 178.38 11.0998 176.541 13.5447L173.198 17.9898L174.824 18.0267C175.718 18.0471 176.518 18.0384 176.601 18.0072C176.684 17.9762 177.833 16.5037 179.154 14.7348C180.476 12.9659 181.617 11.5361 181.691 11.5576C181.764 11.579 182.91 13.0484 184.237 14.8231L186.649 18.0496L188.423 18.0525L190.197 18.0552L188.015 15.1442C186.815 13.5431 183.793 9.51015 181.299 6.18197L176.707 0H173.067ZM160.453 22.6672L160.453 23.4849L159.174 23.4394C157.716 23.3874 157.338 23.4517 156.966 23.8153C156.731 24.044 156.701 24.2549 156.701 25.6496C156.701 27.1513 156.717 27.2408 157.032 27.5489C157.355 27.8643 157.41 27.8719 159.31 27.8601L161.257 27.8481V24.8487V21.8495H160.855H160.453L160.453 22.6672ZM153.217 22.3728C153.217 22.7217 153.262 22.7653 153.619 22.7653C153.977 22.7653 154.021 22.7217 154.021 22.3728C154.021 22.0239 153.977 21.9803 153.619 21.9803C153.262 21.9803 153.217 22.0239 153.217 22.3728ZM133.922 25.6531V27.8679H134.324H134.726C134.726 27.8679 134.73 28.6529 134.728 26.396C134.726 24.1391 134.711 24.3353 135.747 24.3353H136.602V23.8792V23.423L135.262 23.4307L133.922 23.4383V25.6531ZM139.055 23.7352C138.702 24.0313 138.676 24.1252 138.632 25.2466C138.574 26.7104 138.672 27.2668 139.045 27.6067C139.305 27.8433 139.519 27.8679 141.317 27.8679H143.302V27.479V27.0902L141.459 27.0538L139.617 27.0174L139.576 26.6066L139.535 26.1957L141.096 26.1474C142.9 26.1474 142.727 26.0362 142.9 25.8399C143.151 25.5542 143.06 23.7595 142.9 23.5503C142.699 23.2886 142.096 23.4307 140.975 23.4195C139.536 23.4195 139.405 23.4409 139.055 23.7352ZM146.31 23.7407C146.029 24.0156 145.982 24.1838 145.982 24.9107C145.982 26.0856 146.118 26.167 148.088 26.167H149.599V26.6249V27.0829H147.79H145.982V27.4754V27.8679H147.93C149.821 27.8679 149.889 27.8583 150.208 27.5467C150.483 27.2785 150.537 27.0987 150.537 26.4548C150.537 25.3362 150.423 25.2684 148.455 25.2229L146.852 25.1858V24.7932V24.4007L148.695 24.3644L150.537 24.328V23.8737V23.4195H148.588C146.698 23.4195 146.63 23.429 146.31 23.7407ZM153.217 25.6437V27.8679H153.619H154.021V25.6437V23.4195H153.619H153.217V25.6437ZM164.521 23.5726C164.06 23.7905 163.937 24.2584 163.937 25.7867C163.937 27.1399 163.956 27.2447 164.266 27.5467C164.585 27.8583 164.653 27.8679 166.543 27.8679H168.492V27.4754V27.0829H166.683H164.875V26.6364V26.1902L166.338 26.1458C167.67 26.1055 167.833 26.0731 168.147 25.7845C168.435 25.5199 168.492 25.3505 168.492 24.7645C168.492 24.1928 168.431 24.0018 168.163 23.7407C167.852 23.4364 167.755 23.42 166.321 23.4284C165.489 23.4332 164.679 23.4981 164.521 23.5726ZM171.172 25.653V27.8679H171.641H172.11V26.1016V24.3353H173.517H174.924V26.1016V27.8679H175.395H175.866L175.823 25.9532C175.78 24.047 175.779 24.0371 175.41 23.7276C175.056 23.4302 174.957 23.4173 173.106 23.4273L171.172 23.4379V25.653ZM178.788 23.8129L178.386 24.2062L178.43 25.7872C178.49 27.9192 178.425 27.8679 181.103 27.8679H183.098V27.479V27.0902L181.255 27.0538L179.413 27.0174L179.375 25.6764L179.336 24.3353H181.217H183.098V23.8774V23.4195H181.144H179.191L178.788 23.8129ZM186.024 23.8129L185.621 24.2062L185.666 25.7872C185.726 27.9192 185.66 27.8679 188.338 27.8679H190.333V27.479V27.0902L188.491 27.0538L186.649 27.0174L186.607 26.5922L186.564 26.167H187.85C189.383 26.167 189.945 25.9823 190.193 25.3959C190.436 24.8248 190.288 24.0757 189.861 23.7139C189.545 23.4453 189.379 23.4195 187.971 23.4195C186.433 23.4195 186.425 23.421 186.024 23.8129ZM142.364 24.7932V25.2512H140.957H139.55V24.7932V24.3353H140.957H142.364V24.7932ZM160.386 25.7091V27.0174L159.012 27.0547L157.639 27.092V25.7091V24.3262L159.012 24.3635L160.386 24.4007V25.7091ZM167.663 24.7605L167.621 25.1858L166.248 25.223L164.875 25.2603V24.7978V24.3353H166.29H167.705L167.663 24.7605ZM189.37 24.7605L189.328 25.1858L187.955 25.223L186.582 25.2603V24.7978V24.3353H187.997H189.412L189.37 24.7605Z" fill="#009EE3"/>
</svg>
