<svg width="190" height="28" viewBox="0 0 190 28" fill="none" xmlns="http://www.w3.org/2000/svg">
<path fill-rule="evenodd" clip-rule="evenodd" d="M0 9.03183V18.0636L7.53713 18.0267L15.0743 17.9898L15.6713 17.6627C15.9996 17.4828 16.4518 17.0805 16.6763 16.7688L17.0842 16.2018L17.1272 13.3185C17.1573 11.3009 17.1223 10.3224 17.0109 10.0597C16.8402 9.65709 16.0903 9.10378 15.6772 9.09306C16.736 8.59209 17.1635 8.20495 17.1211 4.90634C17.0874 2.28192 17.0595 1.98178 16.8042 1.50463C16.4735 0.886431 15.666 0.291917 14.9303 0.125364C14.6411 0.0598157 11.1634 0.00486503 7.20214 0.00316417L0 2.41369e-05V9.03183ZM26.4969 0.183586C25.7377 0.452844 25.116 0.975268 24.8024 1.60786C24.5257 2.16613 24.5208 2.3145 24.5208 10.1157V18.0553H25.9947H27.4686V14.9152V11.7752H33.0964H38.7241V14.9152V18.0553H40.198H41.6719V10.2246C41.6719 4.65618 41.6273 2.26569 41.5174 1.94933C41.2762 1.25486 40.9039 0.816696 40.2228 0.425761L39.595 0.0654416L33.2973 0.0353496C28.2565 0.0112759 26.8993 0.0408446 26.4969 0.183586ZM46.7235 0.163568C46.793 0.253582 48.3983 2.39614 50.2906 4.92491L53.7313 9.52272V13.789V18.0553H55.1383H56.5452V13.8159V9.57662L60.096 4.85806C62.049 2.26281 63.6468 0.108094 63.6468 0.0697592C63.6468 0.0314245 62.848 0.000285805 61.8714 0.000547475L60.096 0.00120165L57.7062 3.20522C56.3919 4.96744 55.2673 6.43894 55.2071 6.47518C55.147 6.51155 54.0016 5.06949 52.6619 3.27064L50.2261 2.41369e-05H48.4115C46.9817 2.41369e-05 46.6237 0.0346954 46.7235 0.163568ZM67.3987 1.37379V2.74756H70.3465H73.2944V10.4014V18.0553H74.7683H76.2422V10.4014V2.74756H79.1901H82.1379V1.37379V2.41369e-05H74.7683H67.3987V1.37379ZM88.3016 9.02764V18.0553H89.7755H91.2495V9.02764V2.41369e-05H89.7755H88.3016V9.02764ZM98.6191 9.02764V18.0553H100.093H101.567V14.1956V10.336L104.079 10.3379L106.592 10.34L109.339 14.1933L112.085 18.0465L113.922 18.0509L115.758 18.0553L112.607 13.5919C110.752 10.9652 109.486 9.05145 109.529 8.94129C109.57 8.83845 110.936 6.8635 112.565 4.55269C114.194 2.24175 115.558 0.272161 115.596 0.175605C115.652 0.0340412 115.319 0.00107081 113.875 0.00538837L112.085 0.0106218L109.353 3.86502L106.62 7.71929H104.093H101.567V3.85966V2.41369e-05H100.093H98.6191V9.02764ZM184.358 1.85827C183.594 2.88036 182.836 3.98659 182.747 4.10669L184.486 6.55773L185.21 5.6012C186.424 3.99585 189.36 0.173618 189.467 0C189.467 0 188.953 2.41369e-05 187.548 2.41369e-05H185.748L184.358 1.85827ZM133.055 9.09306V18.0553H137.879H142.703V16.7469V15.4386H139.286H135.869V7.78471V0.130859H134.462H133.055V9.09306ZM149.001 8.05161C149.001 15.58 149.013 15.9963 149.256 16.4578C149.552 17.023 149.953 17.404 150.609 17.7456C151.048 17.9743 151.487 17.9898 157.509 17.9898C163.838 17.9898 163.949 17.9853 164.477 17.7081C165.15 17.3546 165.545 16.9442 165.81 16.324C165.99 15.905 166.018 14.7785 166.018 7.98515V0.130859H164.611H163.204V7.6277C163.204 13.2841 163.164 15.1631 163.043 15.2815C162.812 15.5071 152.206 15.5071 151.975 15.2815C151.854 15.1631 151.814 13.2841 151.814 7.6277V0.130859H150.408H149.001V8.05161ZM172.472 0.23592C172.496 0.293749 173.964 2.26857 175.732 4.62439C177.501 6.98033 178.964 8.95097 178.983 9.0037C179.002 9.05642 177.513 11.0998 175.674 13.5447L172.331 17.9898L173.957 18.0267C174.852 18.0471 175.651 18.0384 175.734 18.0072C175.817 17.9762 176.966 16.5037 178.287 14.7348C179.609 12.9659 180.75 11.5361 180.824 11.5576C180.898 11.5791 182.043 13.0485 183.37 14.8231L185.782 18.0496L187.556 18.0525L189.331 18.0553L187.148 15.1442C185.948 13.5431 182.926 9.51016 180.433 6.18198L175.899 0.130859H174.163C173.208 0.130859 172.447 0.17809 172.472 0.23592ZM14.1363 2.74468V7.72217H2.94785V5.23342V2.74468H14.1363ZM38.693 5.92031L38.7289 9.02764H33.0988H27.4686V5.97487C27.4686 4.29573 27.5095 2.88206 27.5595 2.83339C27.6093 2.78458 30.1268 2.76012 33.1537 2.77883L38.6571 2.81298L38.693 5.92031ZM14.1363 10.336V15.2764H8.54208L2.94785 15.3106V12.8233V10.336H8.42523C12.9216 10.336 14.1363 10.336 14.1363 10.336ZM159.586 22.6672L159.586 23.4849L158.308 23.4394C156.849 23.3874 156.471 23.4517 156.099 23.8153C155.865 24.044 155.834 24.2549 155.834 25.6496C155.834 27.1513 155.85 27.2408 156.165 27.5489C156.488 27.8643 156.544 27.8719 158.443 27.8602L160.39 27.8481V24.8487V21.8495H159.988H159.586L159.586 22.6672ZM152.35 22.3728C152.35 22.7217 152.395 22.7653 152.752 22.7653C153.11 22.7653 153.154 22.7217 153.154 22.3728C153.154 22.0239 153.11 21.9803 152.752 21.9803C152.395 21.9803 152.35 22.0239 152.35 22.3728ZM133.055 25.6531V27.8679H133.457H133.859C133.859 27.8679 133.863 28.6529 133.861 26.396C133.859 24.1391 133.845 24.3353 134.88 24.3353H135.735V23.8792V23.423L134.395 23.4307L133.055 23.4383V25.6531ZM138.188 23.7352C137.835 24.0313 137.809 24.1252 137.765 25.2466C137.707 26.7104 137.805 27.2668 138.179 27.6067C138.439 27.8433 138.652 27.8679 140.45 27.8679H142.435V27.479V27.0902L140.593 27.0538L138.75 27.0174L138.709 26.6066L138.668 26.1957L140.229 26.1474C142.033 26.1474 141.86 26.0362 142.033 25.8399C142.285 25.5542 142.194 23.7595 142.033 23.5503C141.832 23.2887 141.229 23.4307 140.108 23.4195C138.669 23.4195 138.538 23.4409 138.188 23.7352ZM145.444 23.7407C145.162 24.0156 145.115 24.1838 145.115 24.9107C145.115 26.0856 145.251 26.167 147.222 26.167H148.733V26.6249V27.0829H146.924H145.115V27.4754V27.8679H147.064C148.954 27.8679 149.023 27.8583 149.342 27.5467C149.616 27.2785 149.671 27.0987 149.671 26.4549C149.671 25.3362 149.556 25.2684 147.588 25.2229L145.986 25.1858V24.7933V24.4007L147.828 24.3644L149.671 24.328V23.8737V23.4195H147.722C145.831 23.4195 145.763 23.429 145.444 23.7407ZM152.35 25.6437V27.8679H152.752H153.154V25.6437V23.4195H152.752H152.35V25.6437ZM163.655 23.5726C163.193 23.7905 163.07 24.2584 163.07 25.7867C163.07 27.1399 163.089 27.2447 163.399 27.5467C163.718 27.8583 163.786 27.8679 165.677 27.8679H167.626V27.4754V27.0829H165.817H164.008V26.6365V26.1902L165.471 26.1458C166.803 26.1055 166.966 26.0731 167.28 25.7845C167.568 25.5199 167.626 25.3505 167.626 24.7645C167.626 24.1929 167.564 24.0018 167.297 23.7407C166.985 23.4364 166.889 23.42 165.454 23.4284C164.622 23.4332 163.812 23.4981 163.655 23.5726ZM170.306 25.653V27.8679H170.775H171.243V26.1016V24.3353H172.65H174.057V26.1016V27.8679H174.528H174.999L174.956 25.9532C174.914 24.047 174.912 24.0372 174.543 23.7276C174.189 23.4302 174.09 23.4173 172.239 23.4273L170.306 23.4379V25.653ZM177.922 23.8129L177.519 24.2062L177.563 25.7872C177.624 27.9192 177.558 27.8679 180.236 27.8679H182.231V27.479V27.0902L180.389 27.0538L178.546 27.0174L178.508 25.6764L178.47 24.3353H180.35H182.231V23.8774V23.4195H180.278H178.324L177.922 23.8129ZM185.157 23.8129L184.754 24.2062L184.799 25.7872C184.859 27.9192 184.793 27.8679 187.472 27.8679H189.467V27.479V27.0902L187.624 27.0538L185.782 27.0174L185.74 26.5922L185.698 26.167H186.984C188.517 26.167 189.078 25.9823 189.327 25.3959C189.569 24.8248 189.421 24.0758 188.995 23.7139C188.678 23.4453 188.513 23.4195 187.104 23.4195C185.567 23.4195 185.559 23.4211 185.157 23.8129ZM141.497 24.7933V25.2512H140.09H138.683V24.7933V24.3353H140.09H141.497V24.7933ZM159.519 25.7091V27.0174L158.146 27.0547L156.772 27.092V25.7091V24.3262L158.146 24.3635L159.519 24.4007V25.7091ZM166.797 24.7605L166.755 25.1858L165.381 25.223L164.008 25.2603V24.7978V24.3353H165.423H166.839L166.797 24.7605ZM188.504 24.7605L188.462 25.1858L187.088 25.223L185.715 25.2603V24.7978V24.3353H187.13H188.546L188.504 24.7605Z" fill="white"/>
<path fill-rule="evenodd" clip-rule="evenodd" d="M133.055 9.09305V18.0552H137.879H142.703V16.7469V15.4385H139.286H135.869V7.7847V0.130851H134.462H133.055V9.09305ZM149.001 8.0516C149.001 15.58 149.013 15.9963 149.256 16.4577C149.552 17.023 149.953 17.4039 150.609 17.7456C151.048 17.9743 151.487 17.9898 157.509 17.9898C163.838 17.9898 163.949 17.9852 164.477 17.7081C165.15 17.3546 165.545 16.9442 165.81 16.324C165.99 15.905 166.018 14.7785 166.018 7.98514V0.130851H164.611H163.204V7.6277C163.204 13.2841 163.164 15.1631 163.043 15.2815C162.812 15.5071 152.206 15.5071 151.975 15.2815C151.854 15.1631 151.814 13.2841 151.814 7.6277V0.130851H150.408H149.001V8.0516ZM172.2 0C172.2 0 173.964 2.26856 175.732 4.62438C177.501 6.98032 178.964 8.95096 178.983 9.00369C179.002 9.05641 177.513 11.0998 175.674 13.5447L172.331 17.9898L173.957 18.0267C174.852 18.0471 175.651 18.0384 175.734 18.0072C175.817 17.9762 176.966 16.5037 178.287 14.7348C179.609 12.9659 180.75 11.5361 180.824 11.5576C180.898 11.579 182.043 13.0484 183.37 14.8231L185.782 18.0496L187.556 18.0525L189.331 18.0552L187.149 15.1442C185.948 13.5431 182.926 9.51015 180.433 6.18197L175.84 0H172.2ZM159.586 22.6672L159.586 23.4849L158.308 23.4394C156.849 23.3874 156.471 23.4517 156.099 23.8153C155.865 24.044 155.834 24.2549 155.834 25.6496C155.834 27.1513 155.85 27.2408 156.165 27.5489C156.488 27.8643 156.544 27.8719 158.443 27.8601L160.39 27.8481V24.8487V21.8495H159.988H159.586L159.586 22.6672ZM152.35 22.3728C152.35 22.7217 152.395 22.7653 152.752 22.7653C153.11 22.7653 153.154 22.7217 153.154 22.3728C153.154 22.0239 153.11 21.9803 152.752 21.9803C152.395 21.9803 152.35 22.0239 152.35 22.3728ZM133.055 25.6531V27.8679H133.457H133.859C133.859 27.8679 133.863 28.6529 133.861 26.396C133.859 24.1391 133.845 24.3353 134.88 24.3353H135.735V23.8792V23.423L134.395 23.4307L133.055 23.4383V25.6531ZM138.188 23.7352C137.836 24.0313 137.809 24.1252 137.765 25.2466C137.707 26.7104 137.805 27.2668 138.179 27.6067C138.439 27.8433 138.652 27.8679 140.45 27.8679H142.435V27.479V27.0902L140.593 27.0538L138.75 27.0174L138.709 26.6066L138.668 26.1957L140.229 26.1474C142.033 26.1474 141.86 26.0362 142.033 25.8399C142.285 25.5542 142.194 23.7595 142.033 23.5503C141.832 23.2886 141.229 23.4307 140.108 23.4195C138.669 23.4195 138.538 23.4409 138.188 23.7352ZM145.444 23.7407C145.162 24.0156 145.115 24.1838 145.115 24.9107C145.115 26.0856 145.251 26.167 147.222 26.167H148.733V26.6249V27.0829H146.924H145.115V27.4754V27.8679H147.064C148.954 27.8679 149.023 27.8583 149.342 27.5467C149.616 27.2785 149.671 27.0987 149.671 26.4548C149.671 25.3362 149.556 25.2684 147.588 25.2229L145.986 25.1858V24.7932V24.4007L147.828 24.3644L149.671 24.328V23.8737V23.4195H147.722C145.831 23.4195 145.763 23.429 145.444 23.7407ZM152.35 25.6437V27.8679H152.752H153.154V25.6437V23.4195H152.752H152.35V25.6437ZM163.655 23.5726C163.193 23.7905 163.07 24.2584 163.07 25.7867C163.07 27.1399 163.089 27.2447 163.399 27.5467C163.718 27.8583 163.786 27.8679 165.677 27.8679H167.626V27.4754V27.0829H165.817H164.008V26.6364V26.1902L165.471 26.1458C166.803 26.1055 166.966 26.0731 167.28 25.7845C167.568 25.5199 167.626 25.3505 167.626 24.7645C167.626 24.1928 167.564 24.0018 167.297 23.7407C166.985 23.4364 166.889 23.42 165.454 23.4284C164.622 23.4332 163.812 23.4981 163.655 23.5726ZM170.306 25.653V27.8679H170.775H171.244V26.1016V24.3353H172.65H174.057V26.1016V27.8679H174.528H174.999L174.956 25.9532C174.914 24.047 174.912 24.0371 174.543 23.7276C174.189 23.4302 174.09 23.4173 172.239 23.4273L170.306 23.4379V25.653ZM177.922 23.8129L177.519 24.2062L177.563 25.7872C177.624 27.9192 177.558 27.8679 180.236 27.8679H182.231V27.479V27.0902L180.389 27.0538L178.546 27.0174L178.508 25.6764L178.47 24.3353H180.35H182.231V23.8774V23.4195H180.278H178.325L177.922 23.8129ZM185.157 23.8129L184.754 24.2062L184.799 25.7872C184.859 27.9192 184.793 27.8679 187.472 27.8679H189.467V27.479V27.0902L187.624 27.0538L185.782 27.0174L185.74 26.5922L185.698 26.167H186.984C188.517 26.167 189.078 25.9823 189.327 25.3959C189.569 24.8248 189.421 24.0757 188.995 23.7139C188.678 23.4453 188.513 23.4195 187.104 23.4195C185.567 23.4195 185.559 23.421 185.157 23.8129ZM141.497 24.7932V25.2512H140.09H138.683V24.7932V24.3353H140.09H141.497V24.7932ZM159.519 25.7091V27.0174L158.146 27.0547L156.772 27.092V25.7091V24.3262L158.146 24.3635L159.519 24.4007V25.7091ZM166.797 24.7605L166.755 25.1858L165.381 25.223L164.008 25.2603V24.7978V24.3353H165.423H166.839L166.797 24.7605ZM188.504 24.7605L188.462 25.1858L187.088 25.223L185.715 25.2603V24.7978V24.3353H187.13H188.546L188.504 24.7605Z" fill="#009EE3"/>
</svg>
