<svg width="68" height="60" viewBox="0 0 68 60" fill="none" xmlns="http://www.w3.org/2000/svg">
<path fill-rule="evenodd" clip-rule="evenodd" d="M37.2565 0.565768C34.9504 1.70481 32.8354 3.60143 31.2096 5.98802C30.6259 6.84467 29.4755 9.11476 29.4755 9.40961C29.4755 9.50004 29.061 9.18893 28.5543 8.71835C27.4295 7.6734 26.1619 6.9191 24.7544 6.45717C23.4706 6.03573 22.776 6.07465 22.3232 6.59306C21.9677 6.99983 21.9382 7.56974 22.2305 8.37921C23.3952 11.6058 23.0481 15.8258 21.3642 18.9121C19.9147 21.5686 19.502 23.0164 19.4034 25.792C19.3024 28.63 19.6887 30.4922 20.8576 32.8029C22.6561 36.358 26.1326 39.1835 30.0443 40.2693C38.4084 42.5909 47.1232 37.1035 48.5081 28.6431C48.7665 27.0645 48.6104 24.0578 48.1935 22.5814C47.7039 20.8474 47.3048 20.065 44.9183 16.1601C40.4541 8.85555 39.4312 5.93901 40.0038 2.14801C40.1875 0.93217 40.1004 0.563802 39.5522 0.234617C38.9278 -0.140303 38.5862 -0.0910304 37.2565 0.565768ZM37.5395 6.92146C38.1167 9.51681 39.355 12.1135 42.3716 17.0537C44.8733 21.1509 45.0252 21.433 45.5222 22.909C45.8734 23.9517 45.8976 24.1652 45.9025 26.2506C45.9067 28.0189 45.8577 28.6541 45.6651 29.3302C45.3314 30.5023 44.5034 32.2056 43.7869 33.1944C43.242 33.9464 41.4591 35.8021 41.368 35.7122C41.3469 35.6915 41.4594 35.2938 41.6177 34.8284C41.9942 33.7226 42.022 31.0578 41.6718 29.6625C40.7528 26.0018 38.2285 22.2227 35.0067 19.6842C34.1297 18.9932 33.8571 18.8466 33.4497 18.8466C32.7115 18.8466 32.1945 19.3304 32.0873 20.1214C31.9627 21.0424 31.642 21.4618 29.5095 23.4923C27.3396 25.5583 26.4662 26.6132 25.8151 27.9542C25.0924 29.4425 24.8989 30.3527 24.8913 32.299C24.8876 33.247 24.8393 33.9953 24.7841 33.9616C24.5814 33.8383 23.6431 32.3835 23.1738 31.465C22.2842 29.7241 22.0892 28.7806 22.0964 26.2506C22.1023 24.174 22.1279 23.9474 22.4746 22.909C22.6791 22.2963 23.1692 21.1984 23.5639 20.4692C25.0111 17.7947 25.7285 14.7481 25.566 11.9667C25.5197 11.1739 25.4426 10.2936 25.3947 10.0106L25.3078 9.4961L25.9454 9.94506C27.0027 10.6899 27.8498 11.735 28.5741 13.1884C29.3064 14.6577 29.6312 14.9739 30.3863 14.9528C30.7473 14.9429 30.9592 14.8363 31.2451 14.521C31.6098 14.1192 31.6215 14.065 31.5403 13.1656C31.3016 10.5198 33.3571 6.69528 36.3288 4.25639L37.1272 3.60117L37.2241 4.76983C37.2773 5.41274 37.4192 6.3809 37.5395 6.92146ZM35.1308 23.3349C36.8636 25.1926 38.4082 27.8372 38.9848 29.9339C39.9047 33.2791 38.7802 36.2129 36.0747 37.5263C34.8968 38.098 33.9413 38.2588 32.6624 38.1006C30.155 37.7906 28.129 35.9522 27.5956 33.5029C27.2717 32.0158 27.6831 29.911 28.606 28.3316C28.8188 27.9676 30.0241 26.6756 31.4043 25.3319C32.7378 24.0337 33.8713 22.8395 33.9234 22.6782C33.9754 22.5169 34.0689 22.3848 34.1312 22.3848C34.1936 22.3848 34.6434 22.8123 35.1308 23.3349ZM9.64695 42.0329C8.73261 42.3068 7.91249 42.9898 7.43369 43.8762C7.21412 44.2826 7.18125 44.7184 7.14452 47.6972L7.10314 51.0594L5.21497 51.1044C3.48197 51.1455 3.26653 51.1783 2.59398 51.5037C1.6501 51.9601 0.825315 52.7702 0.365284 53.6929C0.0538943 54.3172 0 54.5898 0 55.5392C0 56.4886 0.0538943 56.7612 0.365284 57.3855C0.825315 58.3082 1.6501 59.1183 2.59398 59.5748L3.32681 59.9292L15.7683 59.9646C24.9823 59.9908 28.3065 59.9606 28.5828 59.8479C29.2296 59.5841 29.5036 58.7827 29.1834 58.0909C28.8392 57.3467 29.3312 57.3739 16.2082 57.3736C4.97026 57.3735 4.09291 57.3575 3.66215 57.1443C2.31852 56.4796 2.26196 54.7444 3.55849 53.966C3.98778 53.7081 4.29172 53.7055 34.0136 53.7051L64.035 53.7046L64.4872 54.0021C65.7242 54.8158 65.6413 56.4864 64.3311 57.1443C63.9066 57.3575 63.0288 57.3735 51.7186 57.3736L39.5624 57.3739L39.11 57.8194C38.4952 58.4248 38.496 58.9446 39.1126 59.5518L39.5677 60L52.1205 59.9646L64.6732 59.9292L65.4269 59.5648C66.3856 59.1012 67.1591 58.3394 67.6299 57.3953C67.9465 56.7603 68 56.4922 68 55.5392C68 54.5863 67.9465 54.3181 67.6299 53.6831C67.1591 52.739 66.3856 51.9773 65.4269 51.5136C64.7296 51.1765 64.5319 51.1458 62.785 51.1044L60.8969 51.0594L60.8555 47.6972C60.8187 44.7184 60.7859 44.2826 60.5663 43.8762C60.2205 43.2359 59.5785 42.5934 58.9511 42.2594C58.4293 41.9817 58.2906 41.9753 51.9709 41.9384C47.2495 41.9109 45.4217 41.9422 45.1447 42.0552C44.4928 42.3211 44.2174 43.1202 44.5387 43.8143C44.8683 44.527 44.9119 44.5314 51.5589 44.5314C57.5095 44.5314 57.6946 44.539 57.953 44.7935C58.2037 45.0404 58.2192 45.2303 58.2192 48.0696V51.0837H46.775H35.3307V47.9448C35.3307 44.5532 35.2798 44.2547 34.6461 43.9319C34.0484 43.6276 33.6195 43.7005 33.1217 44.1907L32.6693 44.6363V47.86V51.0837H21.225H9.78082V48.0696C9.78082 45.2303 9.79626 45.0404 10.047 44.7935C10.3054 44.539 10.4905 44.5314 16.4282 44.5314C22.9961 44.5314 23.081 44.5233 23.4307 43.8572C23.787 43.1788 23.54 42.3578 22.8922 42.0671C22.4951 41.8889 10.2331 41.8573 9.64695 42.0329ZM33.3493 57.5568C32.5641 57.9853 32.46 58.8975 33.1217 59.5492C33.7859 60.2033 34.734 60.0958 35.1411 59.3205C35.762 58.138 34.5216 56.9169 33.3493 57.5568Z" fill="#B66A20"/>
</svg>
