<svg width="49" height="48" viewBox="0 0 49 48" fill="none" xmlns="http://www.w3.org/2000/svg">
<rect x="1" y="0.5" width="47" height="47" rx="23.5" stroke="#DDCD9D"/>
<path fill-rule="evenodd" clip-rule="evenodd" d="M30.6032 34.9372C30.1976 34.3877 29.9569 33.7051 29.9569 32.9662V14.657C29.9569 14.2942 29.6683 14 29.3123 14H14.1445C13.7886 14 13.5 14.2942 13.5 14.657V31.6521C13.5 33.4635 14.9457 34.9372 16.7226 34.9372H30.6032ZM16.9375 26.6149H18.9999C19.3559 26.6149 19.6445 26.9091 19.6445 27.2719C19.6445 27.6348 19.3559 27.929 18.9999 27.929H16.9375C16.5815 27.929 16.2929 27.6348 16.2929 27.2719C16.2929 26.9091 16.5815 26.6149 16.9375 26.6149ZM16.9375 23.8116C16.5815 23.8116 16.2929 24.1058 16.2929 24.4686C16.2929 24.8315 16.5815 25.1256 16.9375 25.1256H18.9999C19.3559 25.1256 19.6445 24.8315 19.6445 24.4686C19.6445 24.1058 19.3559 23.8116 18.9999 23.8116H16.9375ZM26.5624 31.7835H16.9375C16.5815 31.7835 16.2929 31.4893 16.2929 31.1265C16.2929 30.7636 16.5815 30.4695 16.9375 30.4695H26.5624C26.9183 30.4695 27.2069 30.7636 27.2069 31.1265C27.2069 31.4893 26.9183 31.7835 26.5624 31.7835ZM26.5624 28.9802C26.9183 28.9802 27.2069 28.686 27.2069 28.3232V23.4174C27.2069 23.0545 26.9183 22.7604 26.5624 22.7604H21.7499C21.394 22.7604 21.1054 23.0545 21.1054 23.4174V28.3232C21.1054 28.686 21.394 28.9802 21.7499 28.9802H26.5624ZM26.5624 21.2711H16.9375C16.5815 21.2711 16.2929 20.9769 16.2929 20.6141C16.2929 20.2512 16.5815 19.957 16.9375 19.957H26.5624C26.9183 19.957 27.2069 20.2512 27.2069 20.6141C27.2069 20.9769 26.9183 21.2711 26.5624 21.2711ZM16.9375 18.4678H26.5624C26.9183 18.4678 27.2069 18.1736 27.2069 17.8108C27.2069 17.4479 26.9183 17.1537 26.5624 17.1537H16.9375C16.5815 17.1537 16.2929 17.4479 16.2929 17.8108C16.2929 18.1736 16.5815 18.4678 16.9375 18.4678ZM22.3944 24.0744H25.9179V27.6661H22.3944V24.0744ZM31.2455 18.5552H34.8548C35.2108 18.5552 35.4994 18.8493 35.4994 19.2122C35.4994 32.6182 35.5005 32.9186 35.4976 32.9186C35.4975 32.9186 35.4974 32.9179 35.4972 32.9179C35.4419 34.3379 34.0795 35.3178 32.7507 34.9044C31.9199 34.6461 31.305 33.8836 31.2494 32.9664C31.249 32.9664 31.2487 32.9681 31.2484 32.9681C31.2436 32.968 31.2455 32.5458 31.2455 18.5552Z" fill="#B66A20"/>
</svg>
