<svg width="57" height="56" viewBox="0 0 57 56" fill="none" xmlns="http://www.w3.org/2000/svg">
<path fill-rule="evenodd" clip-rule="evenodd" d="M0.5 28V56H2.35938H4.21875V30.7891V5.57812H7.5H10.7812V23.281V40.984L10.0677 41.0506C9.14358 41.1369 8.64352 41.3826 8.28323 41.9273C8.03605 42.3009 7.99405 42.4774 8.00487 43.0987C8.02905 44.4958 8.98269 45.856 10.3151 46.394C10.944 46.6479 10.9582 46.6485 16.9062 46.6825C23.306 46.7189 23.7655 46.6893 24.7051 46.1807C26.374 45.2774 27.1482 42.953 26.1873 41.7313C25.8559 41.31 25.3977 41.1181 24.5543 41.0473L23.7969 40.9839V23.2792V5.57441L26.6133 5.60361L29.4297 5.63281V9.83303V14.0334L28.6789 14.3374C26.6497 15.1595 25.4384 17.2457 25.7712 19.3455C26.1345 21.6378 28.0547 23.2969 30.3444 23.2969C33.3428 23.2969 35.55 20.5769 34.9048 17.677C34.5407 16.0401 33.3573 14.7436 31.7539 14.2251L31.3438 14.0924V9.83522V5.57812H37.8516H44.3594V9.84375C44.3594 13.376 44.3337 14.1094 44.21 14.1094C44.1278 14.1094 43.7208 14.2793 43.3055 14.4872C41.2844 15.4982 40.2539 17.6782 40.7953 19.7969C41.1529 21.1967 42.0084 22.2254 43.3675 22.8905C44.0445 23.222 44.1556 23.2422 45.2948 23.2422C46.4721 23.2422 46.5252 23.2315 47.3369 22.8303C49.9555 21.5362 50.755 18.2444 49.0222 15.8907C48.4787 15.1523 47.4959 14.4386 46.7261 14.223L46.2188 14.0809V9.82953V5.57812H49.5H52.7812V30.7891V56H54.6406H56.5V28V0H54.6406H52.7812V0.929688V1.85938H28.5H4.21875V0.929688V0H2.35938H0.5V28ZM21.9375 23.2969V41.0156H17.2891H12.6406V23.2969V5.57812H17.2891H21.9375V23.2969ZM31.2568 16.0293C33.2643 16.7134 33.7959 19.2877 32.222 20.7028C31.6347 21.2309 31.0898 21.438 30.292 21.4364C29.2786 21.4344 28.173 20.678 27.7685 19.7099C27.6821 19.503 27.6113 19.0239 27.6113 18.6455C27.6113 16.7268 29.444 15.4117 31.2568 16.0293ZM46.6489 16.2487C48.7604 17.398 48.4422 20.5763 46.1396 21.3362C45.5426 21.5332 44.4575 21.4064 43.8886 21.0731C42.3325 20.1611 42.0521 18.0843 43.3052 16.7524C44.1847 15.8177 45.4944 15.6204 46.6489 16.2487Z" fill="#B66A20"/>
</svg>
