<svg width="37" height="37" viewBox="0 0 37 37" fill="none" xmlns="http://www.w3.org/2000/svg">
<path opacity="0.4" d="M10.7916 4.625H26.2083C30.8333 4.625 33.9166 6.9375 33.9166 12.3333V17.1742C33.9166 18.2996 32.7603 19.0088 31.7274 18.5617C30.0316 17.8217 28.1045 17.5442 26.0849 17.8679C22.0458 18.5308 18.7466 21.7221 17.9295 25.7304C17.6983 26.9021 17.6674 28.0429 17.8216 29.1375C17.9449 30.0471 17.2049 30.8488 16.2953 30.8488H10.7916C6.16659 30.8488 3.08325 28.5363 3.08325 23.1404V12.3488C3.08325 6.93751 6.16659 4.625 10.7916 4.625Z" fill="#FDFDFD"/>
<path d="M18.5001 18.2994C17.2051 18.2994 15.8947 17.8986 14.8926 17.0815L10.0672 13.2274C9.57385 12.8265 9.48136 12.102 9.88219 11.6086C10.283 11.1153 11.0076 11.0228 11.5009 11.4236L16.3263 15.2778C17.498 16.2182 19.4868 16.2182 20.6584 15.2778L25.4839 11.4236C25.9772 11.0228 26.7172 11.0999 27.1026 11.6086C27.5034 12.102 27.4263 12.8419 26.9176 13.2274L22.0922 17.0815C21.1055 17.8986 19.7951 18.2994 18.5001 18.2994Z" fill="#FDFDFD"/>
<path d="M27.7501 20.042C23.4951 20.042 20.0417 23.4799 20.0417 27.7503C20.0417 32.0053 23.4951 35.4587 27.7501 35.4587C32.0205 35.4587 35.4584 32.0053 35.4584 27.7503C35.4584 23.4799 32.0205 20.042 27.7501 20.042ZM30.9105 27.0566L30.3401 27.6116L26.9947 30.9724C26.8405 31.1112 26.5476 31.2653 26.3317 31.2961L24.8209 31.512C24.2813 31.5891 23.8959 31.2037 23.973 30.6641L24.1888 29.1532C24.2197 28.9374 24.3584 28.6445 24.5126 28.4903L27.8734 25.1449L28.4284 24.5745C28.7984 24.2045 29.2147 23.9578 29.6463 23.9578C30.0163 23.9578 30.4326 24.1274 30.8951 24.5745C31.9126 25.592 31.5888 26.3782 30.9105 27.0566Z" fill="#FDFDFD"/>
</svg>
