<svg width="71" height="45" viewBox="0 0 71 45" fill="none" xmlns="http://www.w3.org/2000/svg">
<path fill-rule="evenodd" clip-rule="evenodd" d="M14.901 0.0851867C14.2004 0.263026 12.9805 0.968748 12.5946 1.41941C12.1352 1.95546 11.5384 3.11508 11.5384 3.47132C11.5384 3.89253 11.3914 3.90986 10.4587 3.59857C9.27897 3.20485 8.10183 3.31406 6.93329 3.92593C5.97293 4.42859 5.53664 4.87445 4.96694 5.93529L4.5803 6.65496L4.53697 12.312L4.49364 17.969L3.82581 18.0675C2.35484 18.2841 1.0229 19.2562 0.347173 20.6059C0.0542147 21.191 -0.00460661 21.5137 0.000271248 22.5083C0.00658378 23.8211 0.259228 24.5329 1.05561 25.4818C1.57668 26.1029 2.92785 26.8204 3.81964 26.9498L4.49364 27.0476L4.53697 32.7046L4.5803 38.3617L5.07009 39.2489C6.13978 41.1865 8.41028 42.1004 10.4587 41.4176C11.3962 41.1052 11.5384 41.1234 11.5384 41.5562C11.5384 41.9996 12.3936 43.4753 12.8894 43.8872C14.2641 45.0297 16.3094 45.3288 17.8633 44.6148C18.839 44.1664 19.5857 43.4567 20.1105 42.4789L20.5051 41.7437L20.547 34.3807L20.5889 27.0177H35.4985H50.4081L50.4488 34.3807L50.4896 41.7437L50.8448 42.4483C51.2986 43.3482 52.159 44.1925 53.072 44.6334C53.6642 44.9195 54.0021 44.9797 55.0088 44.9787C56.1204 44.9775 56.3083 44.9353 57.1322 44.4997C57.6295 44.2369 58.198 43.8331 58.3956 43.6026C58.8587 43.0619 59.4562 41.903 59.4562 41.5453C59.4562 41.1243 59.6033 41.1068 60.536 41.4176C61.6833 41.8001 62.7644 41.7057 63.9825 41.1166C64.9731 40.6377 65.5757 40.0056 66.0946 38.9014C66.4058 38.2391 66.4155 38.07 66.4564 32.6343L66.4983 27.0479L67.1693 26.9491C67.9238 26.8379 68.959 26.363 69.598 25.835C69.8328 25.6409 70.2444 25.0825 70.5125 24.5941C70.9577 23.7832 71 23.6023 71 22.5083C71 21.4135 70.9578 21.2339 70.5106 20.4192C69.7821 19.0922 68.6324 18.283 67.1689 18.0675L66.501 17.969L66.4577 12.312L66.4144 6.65496L65.9241 5.76703C65.36 4.74495 64.8591 4.28372 63.7876 3.79995C62.7063 3.31166 61.6025 3.24346 60.536 3.599C59.6047 3.9093 59.4562 3.89225 59.4562 3.47442C59.4562 3.08309 58.953 2.08243 58.4617 1.49719C58.2315 1.22282 57.6348 0.780762 57.1357 0.514989C56.3021 0.0710953 56.129 0.0320609 55.0088 0.035302C54.0098 0.0381204 53.6596 0.101252 53.072 0.384217C52.1597 0.823601 51.2989 1.6677 50.8448 2.56832L50.4896 3.27291L50.4488 10.6359L50.4081 17.9989H35.4985H20.5889L20.547 10.6359L20.5051 3.27291L20.1105 2.53774C19.5863 1.56103 18.836 0.847135 17.8834 0.418742C17.0491 0.0436163 15.6713 -0.110549 14.901 0.0851867ZM17.2431 2.59255C17.4492 2.74376 17.7511 3.04265 17.9138 3.25671C18.2092 3.64522 18.2096 3.67721 18.2096 22.5083C18.2096 41.3394 18.2092 41.3714 17.9138 41.7599C17.3517 42.4993 16.8932 42.7302 15.9859 42.7302C15.0786 42.7302 14.6201 42.4995 14.058 41.7599C13.7632 41.3723 13.762 41.3043 13.721 22.8856C13.6983 12.7187 13.717 4.19607 13.7626 3.94636C13.8649 3.38508 14.4647 2.66569 15.0462 2.4064C15.6269 2.14767 16.7682 2.24434 17.2431 2.59255ZM56.266 2.59255C56.4721 2.74376 56.774 3.04265 56.9367 3.25671C57.2321 3.64522 57.2325 3.67721 57.2325 22.5083C57.2325 41.3394 57.2321 41.3714 56.9367 41.7599C56.3746 42.4993 55.9161 42.7302 55.0088 42.7302C54.1015 42.7302 53.643 42.4995 53.0809 41.7599C52.7861 41.3723 52.7849 41.3043 52.7439 22.8856C52.7212 12.7187 52.7399 4.19607 52.7855 3.94636C52.8878 3.38508 53.4876 2.66569 54.0691 2.4064C54.6498 2.14767 55.7911 2.24434 56.266 2.59255ZM10.3567 5.9746C10.5629 6.12581 10.8647 6.4247 11.0274 6.63875C11.3219 7.02628 11.3232 7.09308 11.3232 22.5083C11.3232 37.9236 11.3219 37.9904 11.0274 38.3779C10.4682 39.1136 10.0056 39.3481 9.1137 39.3481C8.42491 39.3481 8.19824 39.2808 7.74603 38.942C6.74693 38.1934 6.80403 39.1897 6.80403 22.522C6.80403 12.1873 6.85209 7.32362 6.95711 7.05165C7.15911 6.52799 7.63556 6.03083 8.16696 5.78916C8.73867 5.52916 9.88124 5.62597 10.3567 5.9746ZM63.1524 5.9746C63.3585 6.12581 63.6604 6.4247 63.8231 6.63875C64.1176 7.02628 64.1189 7.09308 64.1189 22.5083C64.1189 37.9236 64.1176 37.9904 63.8231 38.3779C63.261 39.1173 62.8025 39.3481 61.8952 39.3481C60.9879 39.3481 60.5294 39.1174 59.9673 38.3779C59.6735 37.9913 59.6712 37.8882 59.6301 22.8856C59.6073 14.5788 59.626 7.57812 59.6716 7.32841C59.7743 6.76699 60.374 6.0476 60.9555 5.78845C61.5362 5.52972 62.6775 5.62639 63.1524 5.9746ZM4.50856 22.5083C4.50856 24.996 4.52822 24.9514 3.60056 24.5708C1.81541 23.8382 1.79518 21.2107 3.56886 20.4519C4.52334 20.0435 4.50856 20.0114 4.50856 22.5083ZM50.4179 22.5083V24.763H35.4973H20.5768V22.5083V20.2536H35.4973H50.4179V22.5083ZM67.7684 20.6514C68.4715 21.1614 68.7098 21.6315 68.7098 22.5083C68.7098 23.1216 68.6339 23.433 68.414 23.7223C68.002 24.2645 67.4998 24.6032 66.9524 24.7085L66.4861 24.7983V22.5083V20.2184L66.9524 20.3082C67.2089 20.3575 67.576 20.5119 67.7684 20.6514Z" fill="#B66A20"/>
</svg>
